<svg width="213" height="363" viewBox="0 0 213 363" fill="none" xmlns="http://www.w3.org/2000/svg">
<path d="M165.098 334.167C181.007 321.005 192.835 301.087 190.897 280.521C187.588 243.555 144.673 221.93 134.969 186.046C130.114 167.954 134.336 148.555 139.492 130.473C142.748 119.022 146.145 107.268 147.746 95.4158C148.597 88.6665 149 81.9301 148.205 75.0789C148.183 74.3323 148.017 73.7393 147.846 72.9971C145.652 53.9322 137.675 41.6096 130.271 33.6042C126.72 29.6718 122.585 26.2046 118.16 23.0447C112.524 19.322 106.307 16.2137 99.9623 13.8564C58.8575 -1.99321 10.2887 3.14461 -26.5255 27.2208C-63.4891 51.3012 -87.6745 93.5433 -89.991 137.545C-92.0692 179.448 -75.1973 220.356 -52.9518 255.878C-29.7629 293.017 0.814176 327.252 40.7848 345.227C80.9048 363.197 131.382 362.039 165.098 334.167Z" fill="#B9DDE7"/>
<path d="M205.108 262.823C209.442 243.986 197.685 225.202 178.848 220.868C160.011 216.535 141.227 228.292 136.893 247.129C132.559 265.966 144.317 284.75 163.154 289.083C181.991 293.417 200.774 281.66 205.108 262.823Z" fill="url(#paint0_linear)"/>
<defs>
<linearGradient id="paint0_linear" x1="136.893" y1="247.129" x2="205.108" y2="262.823" gradientUnits="userSpaceOnUse">
<stop stop-color="#FDF571"/>
<stop offset="1" stop-color="#FFFDD9"/>
</linearGradient>
</defs>
</svg>
