<svg width="699" height="657" viewBox="0 0 699 657" fill="none" xmlns="http://www.w3.org/2000/svg">
<g clip-path="url(#clip0)">
<path d="M-85.7245 564.75C-33.6016 582.747 28.2613 582.049 72.4748 549.051C152.186 490.143 141.879 362.217 210.239 290.227C244.753 254.014 294.865 236.689 343.27 223.326C373.911 214.841 405.439 206.256 434.694 193.439C451.27 186.003 467.195 177.562 481.715 166.229C483.388 165.142 484.509 163.938 485.965 162.517C526.398 131.023 543.419 95.7078 551.389 67.6976C555.425 54.1357 557.587 39.8875 558.646 25.4048C559.304 7.37639 557.755 -11.1211 554.316 -28.8666C533.352 -144.639 454.149 -248.272 348.085 -298.783C241.805 -349.628 111.857 -346.095 8.28106 -290.239C-90.1761 -236.757 -160.033 -141.437 -210.14 -41.3435C-262.624 63.1473 -298.22 180.455 -283.678 296.592C-268.918 413.064 -196.141 526.58 -85.7245 564.75Z" fill="url(#paint0_linear)"/>
</g>
<defs>
<linearGradient id="paint0_linear" x1="303.068" y1="399.599" x2="-100.145" y2="-221.206" gradientUnits="userSpaceOnUse">
<stop stop-color="#8BC1D0"/>
<stop offset="1" stop-color="#B9DDE7"/>
</linearGradient>
<clipPath id="clip0">
<rect width="944.275" height="740.021" fill="white" transform="translate(698.987 142.607) rotate(146.996)"/>
</clipPath>
</defs>
</svg>
