<svg width="81" height="326" viewBox="0 0 81 326" fill="none" xmlns="http://www.w3.org/2000/svg">
<g clip-path="url(#clip0)">
<path d="M19.7931 282.74C11.5547 270.405 6.65257 252.677 10.3332 235.457C16.84 204.492 45.9612 189.519 56.2876 159.958C61.4715 145.051 61.2056 128.344 60.2031 112.678C59.5743 102.758 58.8952 92.5705 59.3374 82.4385C59.6264 76.6733 60.1906 70.9533 61.5092 65.2282C61.6126 64.5993 61.7871 64.1113 61.9822 63.4976C65.6394 47.565 72.0549 37.7698 77.5952 31.5766C80.2633 28.5278 83.2362 25.9167 86.3511 23.5873C90.2825 20.8755 94.4981 18.7272 98.7019 17.2228C126.007 6.98884 155.39 15.0517 175.224 38.2073C195.15 61.3779 204.991 98.9069 201.109 136.245C197.334 171.793 181.972 205.047 163.942 233.341C145.133 262.928 122.111 289.496 95.25 301.612C68.2969 313.712 37.2555 308.864 19.7931 282.74Z" fill="url(#paint0_linear)"/>
</g>
<defs>
<linearGradient id="paint0_linear" x1="24.5232" y1="148.815" x2="194.711" y2="176.811" gradientUnits="userSpaceOnUse">
<stop stop-color="#FFFDD9"/>
<stop offset="1" stop-color="#FDF571"/>
</linearGradient>
<clipPath id="clip0">
<rect width="301.699" height="172.42" fill="white" transform="matrix(-0.162322 0.986738 0.986738 0.162322 48.9724 0)"/>
</clipPath>
</defs>
</svg>
