<svg width="17" height="18" viewBox="0 0 17 18" fill="none" xmlns="http://www.w3.org/2000/svg">
<path d="M11.9811 9.48003L17 8.79874L12.1669 8.17938L16.4423 5.79487L11.5163 7.00261L14.5835 2.9768L10.7108 5.94971L12.043 1.27358L9.44061 5.60906L8.75903 0.592285L8.10842 5.42325L5.75386 1.1497L6.96213 6.07358L2.93459 2.9768L5.90877 6.87874L1.23063 5.51616L5.56798 8.14842L0.518066 8.79874L5.38209 9.44906L1.10671 11.8336L6.03269 10.5949L2.93459 14.6207L6.8382 11.6478L5.47504 16.3549L8.10842 12.0194L8.75903 17.0362L9.40963 12.2052L11.7952 16.4787L10.5559 11.5549L14.5835 14.6207L11.6093 10.7497L16.3184 12.0813L11.9811 9.48003Z" fill="#FDF571"/>
</svg>
