<svg width="96" height="96" viewBox="0 0 96 96" fill="none" xmlns="http://www.w3.org/2000/svg">
<path d="M67.0018 51.7603L96 47.8429L68.0758 44.2816L92.778 30.5706L64.3167 37.5151L82.0379 14.3667L59.6627 31.4609L67.3597 4.57318L52.3236 29.5022L48.3856 0.655762L44.6265 28.4338L31.0224 3.86092L38.0035 32.1732L14.7333 14.3667L31.9174 36.8029L4.88816 28.968L29.9484 44.1035L0.771118 47.8429L28.8744 51.5822L4.17215 65.2932L32.6334 58.1706L14.7333 81.319L37.2875 64.2248L29.4114 91.2906L44.6265 66.3616L48.3856 95.208L52.1446 67.43L65.9277 92.0029L58.7677 63.6906L82.0379 81.319L64.8537 59.0609L92.062 66.7177L67.0018 51.7603Z" fill="#8BC1D0"/>
</svg>
