<svg width="145" height="144" viewBox="0 0 145 144" fill="none" xmlns="http://www.w3.org/2000/svg">
<path d="M100.945 77.6801L145 71.7472L102.577 66.3537L140.105 45.5885L96.8658 56.106L123.788 21.0479L89.7952 46.9369L101.489 6.21562L78.6455 43.9705L72.6627 0.282715L66.9519 42.3524L46.284 5.13691L56.8899 48.0156L21.5371 21.0479L47.6438 55.0272L6.58008 43.1614L44.6524 66.084L0.325347 71.7472L43.0207 77.4105L5.4923 98.1756L48.7315 87.3886L21.537 122.447L55.8021 96.5576L43.8365 137.549L66.9519 99.7937L72.6627 143.481L78.3735 101.412L99.3133 138.627L88.4355 95.7485L123.788 122.447L97.6816 88.7369L139.017 100.333L100.945 77.6801Z" fill="#FDF571"/>
</svg>
