<svg width="544" height="2194" viewBox="0 0 544 2194" fill="none" xmlns="http://www.w3.org/2000/svg">
<g clip-path="url(#clip0)">
<path d="M877.622 92.4648C824.028 79.4902 762.509 86.049 721.623 123.09C647.855 189.289 670.243 315.662 609.016 393.809C578.089 433.13 529.846 455.128 482.926 473.019C453.227 484.37 422.655 495.906 394.747 511.438C378.95 520.413 363.897 530.324 350.517 542.984C348.954 544.224 347.953 545.528 346.638 547.081C309.373 582.266 295.776 619.036 290.497 647.676C287.766 661.559 286.964 675.948 287.283 690.466C288.336 708.476 291.631 726.743 296.737 744.083C328.583 857.346 417.253 953.005 527.627 993.233C638.249 1033.77 767.277 1017.94 865.091 952.515C958.035 889.94 1018.54 788.427 1058.93 684.034C1101.28 575.039 1125.59 454.885 1100.1 340.649C1074.37 226.101 991.159 119.995 877.622 92.4648Z" fill="url(#paint0_linear)"/>
</g>
<g clip-path="url(#clip1)">
<path d="M664.007 1231.14C615.992 1219.51 560.877 1225.39 524.247 1258.57C458.158 1317.88 478.216 1431.1 423.362 1501.11C395.655 1536.34 352.433 1556.05 310.397 1572.08C283.79 1582.25 256.4 1592.58 231.397 1606.5C217.245 1614.54 203.759 1623.42 191.771 1634.76C190.372 1635.87 189.474 1637.04 188.297 1638.43C154.91 1669.95 142.729 1702.89 137.999 1728.55C135.552 1740.99 134.834 1753.88 135.12 1766.89C136.063 1783.02 139.016 1799.39 143.59 1814.92C172.12 1916.4 251.561 2002.1 350.445 2038.14C449.552 2074.46 565.149 2060.27 652.781 2001.66C736.049 1945.6 790.257 1854.65 826.445 1761.13C864.379 1663.48 886.164 1555.83 863.33 1453.49C840.274 1350.86 765.725 1255.8 664.007 1231.14Z" fill="url(#paint1_linear)"/>
</g>
<defs>
<linearGradient id="paint0_linear" x1="506.236" y1="293.729" x2="966.484" y2="873.514" gradientUnits="userSpaceOnUse">
<stop stop-color="#8BC1D0"/>
<stop offset="1" stop-color="#B9DDE7"/>
</linearGradient>
<linearGradient id="paint1_linear" x1="331.281" y1="1411.45" x2="743.619" y2="1930.88" gradientUnits="userSpaceOnUse">
<stop stop-color="#8BC1D0"/>
<stop offset="1" stop-color="#B9DDE7"/>
</linearGradient>
<clipPath id="clip0">
<rect width="944.275" height="740.021" fill="white" transform="translate(136.463 587.096) rotate(-38.4435)"/>
</clipPath>
<clipPath id="clip1">
<rect width="845.98" height="662.988" fill="white" transform="translate(0 1674.28) rotate(-38.4435)"/>
</clipPath>
</defs>
</svg>
