<svg width="52" height="51" viewBox="0 0 52 51" fill="none" xmlns="http://www.w3.org/2000/svg">
<path d="M36.3856 27.48L52 25.3794L36.9639 23.4697L50.2651 16.1175L34.9398 19.8413L44.4819 7.42843L32.4337 16.5949L36.5783 2.17682L28.4819 15.5446L26.3615 0.0761721L24.3374 14.9717L17.0121 1.79488L20.7711 16.9768L8.24097 7.42843L17.494 19.4594L2.93977 15.2581L16.4337 23.3742L0.7229 25.3794L15.8554 27.3846L2.55423 34.7368L17.8795 30.9175L8.24097 43.3304L20.3856 34.1639L16.1446 48.6775L24.3374 35.3097L26.3615 50.7781L28.3856 35.8826L35.8072 49.0594L31.9518 33.8775L44.4819 43.3304L35.2289 31.3949L49.8795 35.5007L36.3856 27.48Z" fill="#8BC1D0"/>
</svg>
