<svg width="185" height="542" viewBox="0 0 185 542" fill="none" xmlns="http://www.w3.org/2000/svg">
<g clip-path="url(#clip0)">
<path d="M187.57 359.79C173.192 353.358 158.765 340.193 152.341 322.632C140.688 291.12 158.403 261.2 150.977 228.79C147.212 212.46 137.529 197.592 127.774 184.076C121.601 175.514 115.233 166.74 109.903 157.382C106.905 152.036 104.179 146.576 102.128 140.684C101.866 140.06 101.747 139.523 101.575 138.861C95.8573 122.471 96.088 110.04 97.5678 101.341C98.243 97.0928 99.4396 93.0652 100.923 89.2107C102.924 84.5509 105.5 80.237 108.428 76.5085C127.189 51.8755 158.159 42.516 189.077 52.1204C220.086 61.6865 250.143 89.8605 267.758 125.619C284.457 159.708 289.444 198.283 289.228 233.908C289.043 271.136 283.365 308.031 266.067 334.105C248.677 360.216 218.033 373.404 187.57 359.79Z" fill="url(#paint0_linear)"/>
</g>
<defs>
<linearGradient id="paint0_linear" x1="116.125" y1="236.727" x2="284.935" y2="165.701" gradientUnits="userSpaceOnUse">
<stop stop-color="#FFFDD9"/>
<stop offset="1" stop-color="#FDF571"/>
</linearGradient>
<clipPath id="clip0">
<rect width="473.2" height="270.433" fill="white" transform="matrix(0.387816 0.921737 0.921737 -0.387816 0 104.878)"/>
</clipPath>
</defs>
</svg>
