<svg width="52" height="70" viewBox="0 0 52 70" fill="none" xmlns="http://www.w3.org/2000/svg">
<g clip-path="url(#clip0)">
<path d="M37.5008 36.4001L52 34.413L38.0378 32.6066L50.3889 25.6517L36.1583 29.1743L45.0189 17.4324L33.8313 26.1033L37.6798 12.4646L30.1617 25.1098L28.1927 10.4775L26.3132 24.5679L19.5111 12.1033L23.0017 26.4646L11.3666 17.4324L19.9586 28.813L6.44402 24.8388L18.9741 32.5163L4.3855 34.413L18.4371 36.3098L6.08601 43.2646L20.3167 39.6517L11.3666 51.3937L22.6437 42.7227L18.7056 56.4517L26.3132 43.8066L28.1927 58.4388L30.0722 44.3485L36.9638 56.813L33.3838 42.4517L45.0189 51.3937L36.4268 40.1034L50.0309 43.9872L37.5008 36.4001Z" fill="#FDF571"/>
</g>
<defs>
<clipPath id="clip0">
<rect width="52" height="70" fill="white"/>
</clipPath>
</defs>
</svg>
